<svg width="123" height="534" viewBox="0 0 123 534" fill="none" xmlns="http://www.w3.org/2000/svg">
<path d="M1.78086 443.886C1.78085 484.343 26.6373 518.944 61.7876 533C96.9338 518.944 121.79 484.343 121.79 443.886C121.79 403.428 96.9338 368.827 61.7836 354.771C26.6333 368.831 1.77682 403.428 1.77681 443.886L1.78086 443.886Z" stroke="#C4AEA2" stroke-miterlimit="10"/>
<path d="M1.78086 267C1.78085 306.848 26.6373 340.927 61.7876 354.771C96.9338 340.927 121.79 306.848 121.79 267C121.79 227.152 96.9338 193.073 61.7836 179.229C26.6333 193.077 1.77681 227.152 1.77681 267L1.78086 267Z" stroke="#C4AEA2" stroke-miterlimit="10"/>
<path d="M1.78086 90.1145C1.78085 130.572 26.6373 165.173 61.7876 179.229C96.9338 165.169 121.79 130.572 121.79 90.1145C121.79 49.6569 96.9338 15.0559 61.7836 1.00006C26.6333 15.06 1.77681 49.6569 1.77681 90.1145L1.78086 90.1145Z" stroke="#C4AEA2" stroke-miterlimit="10"/>
<path d="M61.6004 89.6251C61.6003 129.861 86.5465 164.272 121.823 178.25L121.824 0.999943C86.5465 14.9827 61.6004 49.3896 61.6004 89.6251Z" stroke="#C4AEA2" stroke-miterlimit="10"/>
<path d="M61.6003 89.6251C61.6004 49.3896 36.6542 14.9786 1.37721 0.999937L1.3772 178.25C36.6542 164.267 61.6003 129.861 61.6003 89.6251Z" stroke="#C4AEA2" stroke-miterlimit="10"/>
<path d="M61.6004 266.875C61.6003 307.111 86.5465 341.522 121.823 355.5L121.824 178.25C86.5465 192.233 61.6004 226.64 61.6004 266.875Z" stroke="#C4AEA2" stroke-miterlimit="10"/>
<path d="M61.6003 266.875C61.6004 226.64 36.6542 192.229 1.37721 178.25L1.3772 355.5C36.6542 341.518 61.6003 307.111 61.6003 266.875Z" stroke="#C4AEA2" stroke-miterlimit="10"/>
<path d="M61.6004 444.126C61.6003 484.362 86.5465 518.773 121.823 532.751L121.824 355.501C86.5465 369.484 61.6004 403.891 61.6004 444.126Z" stroke="#C4AEA2" stroke-miterlimit="10"/>
<path d="M61.6003 444.126C61.6004 403.891 36.6542 369.48 1.37721 355.501L1.3772 532.751C36.6542 518.768 61.6003 484.362 61.6003 444.126Z" stroke="#C4AEA2" stroke-miterlimit="10"/>
<path opacity="0.5" d="M1.77678 533L121.79 533L121.79 1L1.77683 0.99999L1.77678 533Z" stroke="#C3AEA2" stroke-miterlimit="10"/>
</svg>
