<svg width="456" height="456" viewBox="0 0 456 456" fill="none" xmlns="http://www.w3.org/2000/svg">
<path d="M228 268.934C250.608 268.934 268.935 250.607 268.935 228C268.935 205.392 250.608 187.065 228 187.065C205.393 187.065 187.066 205.392 187.066 228C187.066 250.607 205.393 268.934 228 268.934Z" stroke="#C1ACA0" stroke-miterlimit="10"/>
<path d="M228 440.114C345.148 440.114 440.115 345.147 440.115 227.999C440.115 110.852 345.148 15.8848 228 15.8848C110.852 15.8848 15.8853 110.852 15.8853 227.999C15.8853 345.147 110.852 440.114 228 440.114Z" stroke="#C1ACA0" stroke-miterlimit="10"/>
<path d="M170.959 198.116C170.959 198.116 170.924 198.12 170.909 198.124C170.924 198.124 170.943 198.12 170.959 198.116Z" stroke="#C1ACA0" stroke-miterlimit="10"/>
<path d="M172.409 197.947C172.337 197.955 172.26 197.963 172.188 197.97" stroke="#C1ACA0" stroke-miterlimit="10"/>
<path d="M173.896 197.852C173.812 197.852 173.731 197.859 173.647 197.863C173.731 197.859 173.812 197.855 173.896 197.852Z" stroke="#C1ACA0" stroke-miterlimit="10"/>
<path d="M165.573 199.38C165.535 199.395 165.493 199.407 165.455 199.422" stroke="#C1ACA0" stroke-miterlimit="10"/>
<path d="M166.839 198.985C166.839 198.985 166.826 198.985 166.822 198.989C166.829 198.989 166.835 198.989 166.839 198.985Z" stroke="#C1ACA0" stroke-miterlimit="10"/>
<path d="M168.212 198.63C168.167 198.641 168.125 198.653 168.079 198.66C168.125 198.649 168.167 198.638 168.212 198.63Z" stroke="#C1ACA0" stroke-miterlimit="10"/>
<path d="M169.648 198.33C169.58 198.342 169.507 198.357 169.438 198.368C169.507 198.353 169.58 198.342 169.648 198.33Z" stroke="#C1ACA0" stroke-miterlimit="10"/>
<path d="M283.956 258.414C284.029 258.407 284.105 258.399 284.177 258.392" stroke="#C1ACA0" stroke-miterlimit="10"/>
<path d="M285.408 258.25C285.408 258.25 285.442 258.246 285.461 258.242C285.442 258.242 285.427 258.246 285.408 258.25Z" stroke="#C1ACA0" stroke-miterlimit="10"/>
<path d="M286.718 258.035C286.786 258.024 286.859 258.009 286.927 257.997C286.859 258.012 286.786 258.024 286.718 258.035Z" stroke="#C1ACA0" stroke-miterlimit="10"/>
<path d="M282.466 258.514C282.551 258.514 282.631 258.507 282.715 258.503C282.631 258.507 282.551 258.511 282.466 258.514Z" stroke="#C1ACA0" stroke-miterlimit="10"/>
<path d="M288.154 257.732C288.2 257.72 288.242 257.709 288.284 257.701C288.242 257.713 288.196 257.724 288.154 257.732Z" stroke="#C1ACA0" stroke-miterlimit="10"/>
<path d="M290.797 256.981C290.835 256.97 290.877 256.955 290.915 256.943" stroke="#C1ACA0" stroke-miterlimit="10"/>
<path d="M289.529 257.375C289.529 257.375 289.539 257.375 289.545 257.372C289.539 257.372 289.535 257.372 289.529 257.375Z" stroke="#C1ACA0" stroke-miterlimit="10"/>
<path d="M258.514 173.895C258.514 173.811 258.507 173.731 258.503 173.646C258.507 173.731 258.51 173.811 258.514 173.895Z" stroke="#C1ACA0" stroke-miterlimit="10"/>
<path d="M258.415 172.405C258.407 172.332 258.399 172.26 258.392 172.188" stroke="#C1ACA0" stroke-miterlimit="10"/>
<path d="M258.25 170.954C258.25 170.954 258.246 170.923 258.242 170.904C258.242 170.92 258.246 170.935 258.25 170.954Z" stroke="#C1ACA0" stroke-miterlimit="10"/>
<path d="M257.733 168.208C257.721 168.166 257.71 168.124 257.702 168.082C257.714 168.124 257.725 168.166 257.733 168.208Z" stroke="#C1ACA0" stroke-miterlimit="10"/>
<path d="M257.377 166.835V166.818C257.377 166.818 257.377 166.83 257.377 166.835Z" stroke="#C1ACA0" stroke-miterlimit="10"/>
<path d="M258.035 169.647C258.024 169.579 258.009 169.51 257.997 169.441" stroke="#C1ACA0" stroke-miterlimit="10"/>
<path d="M256.982 165.569C256.971 165.531 256.956 165.493 256.944 165.455" stroke="#C1ACA0" stroke-miterlimit="10"/>
<path d="M198.99 289.528C198.99 289.528 198.99 289.536 198.99 289.545C198.99 289.54 198.99 289.536 198.99 289.528Z" stroke="#C1ACA0" stroke-miterlimit="10"/>
<path d="M197.853 282.466C197.853 282.55 197.86 282.631 197.864 282.715C197.86 282.631 197.856 282.55 197.853 282.466Z" stroke="#C1ACA0" stroke-miterlimit="10"/>
<path d="M197.952 283.956C197.96 284.029 197.967 284.101 197.975 284.177C197.967 284.105 197.96 284.032 197.952 283.956Z" stroke="#C1ACA0" stroke-miterlimit="10"/>
<path d="M198.117 285.411C198.117 285.411 198.121 285.442 198.125 285.461C198.125 285.445 198.121 285.43 198.117 285.411Z" stroke="#C1ACA0" stroke-miterlimit="10"/>
<path d="M198.63 288.153C198.641 288.195 198.649 288.237 198.66 288.279" stroke="#C1ACA0" stroke-miterlimit="10"/>
<path d="M198.331 286.717C198.343 286.785 198.358 286.854 198.369 286.923" stroke="#C1ACA0" stroke-miterlimit="10"/>
<path d="M199.384 290.796C199.396 290.834 199.411 290.872 199.422 290.91" stroke="#C1ACA0" stroke-miterlimit="10"/>
<path d="M47.3944 218.836C12.7988 226.139 19.5777 277.652 54.8857 275.752C80.2627 274.389 112.005 265.591 150.902 246.392C147.091 241.317 144.831 235.013 144.831 228.177C144.831 226.024 145.057 223.926 145.486 221.896C104.031 213.853 71.8177 213.673 47.3905 218.832L47.3944 218.836Z" stroke="#C1ACA0" stroke-miterlimit="10"/>
<path d="M175.194 258.545C173.904 258.545 172.636 258.457 171.387 258.3C171.384 258.3 171.376 258.3 171.372 258.304C172.624 258.461 173.9 258.545 175.194 258.545Z" stroke="#C1ACA0" stroke-miterlimit="10"/>
<path d="M160.614 261.681C116.838 275.978 86.6126 292.822 66.9422 310.485C40.6307 334.112 72.262 375.329 101.89 356.03C122.522 342.591 144.843 320.125 168.121 285.924C162.001 279.114 159.496 270.206 160.614 261.681Z" stroke="#C1ACA0" stroke-miterlimit="10"/>
<path d="M198.124 285.457C198.185 285.878 198.254 286.3 198.331 286.717C198.254 286.3 198.181 285.882 198.124 285.457Z" stroke="#C1ACA0" stroke-miterlimit="10"/>
<path d="M197.971 284.178C198.013 284.591 198.059 285.001 198.116 285.411" stroke="#C1ACA0" stroke-miterlimit="10"/>
<path d="M197.864 282.715C197.883 283.132 197.914 283.546 197.952 283.956C197.914 283.546 197.887 283.132 197.864 282.715Z" stroke="#C1ACA0" stroke-miterlimit="10"/>
<path d="M197.822 281.172C197.822 281.608 197.833 282.037 197.852 282.47C197.833 282.041 197.822 281.608 197.822 281.172Z" stroke="#C1ACA0" stroke-miterlimit="10"/>
<path d="M182.862 294.978C154.276 327.563 137.577 355.932 129.695 380.079C118.723 413.694 166.723 433.575 182.732 402.047C194.493 378.888 202.854 346.092 205.493 301.336C202.824 298.333 200.736 294.798 199.419 290.911C199.813 292.072 200.269 293.201 200.794 294.293C195.014 296.323 188.749 296.549 182.858 294.978H182.862Z" stroke="#C1ACA0" stroke-miterlimit="10"/>
<path d="M198.994 289.544C199.116 289.965 199.246 290.383 199.384 290.796" stroke="#C1ACA0" stroke-miterlimit="10"/>
<path d="M198.369 286.924C198.45 287.337 198.534 287.747 198.63 288.153C198.534 287.747 198.446 287.337 198.369 286.924Z" stroke="#C1ACA0" stroke-miterlimit="10"/>
<path d="M198.664 288.28C198.764 288.702 198.875 289.115 198.99 289.529C198.871 289.115 198.764 288.702 198.664 288.28Z" stroke="#C1ACA0" stroke-miterlimit="10"/>
<path d="M218.837 408.972C226.14 443.567 277.653 436.789 275.753 401.477C274.39 376.1 265.592 344.358 246.393 305.461C241.318 309.272 235.014 311.531 228.178 311.531C226.025 311.531 223.927 311.305 221.897 310.876C213.854 352.331 213.674 384.545 218.833 408.972H218.837Z" stroke="#C1ACA0" stroke-miterlimit="10"/>
<path d="M161.384 182.862C128.799 154.275 100.431 137.577 76.2836 129.695C42.6685 118.722 22.7875 166.722 54.3153 182.731C77.4747 194.493 110.27 202.854 155.027 205.492C158.029 202.823 161.564 200.74 165.452 199.418C164.291 199.813 163.161 200.268 162.07 200.793C160.04 195.014 159.814 188.748 161.384 182.858V182.862Z" stroke="#C1ACA0" stroke-miterlimit="10"/>
<path d="M168.079 198.664C167.661 198.764 167.247 198.871 166.838 198.99" stroke="#C1ACA0" stroke-miterlimit="10"/>
<path d="M175.194 197.821C174.758 197.821 174.329 197.833 173.896 197.852C174.325 197.833 174.758 197.821 175.194 197.821Z" stroke="#C1ACA0" stroke-miterlimit="10"/>
<path d="M166.818 198.993C166.397 199.112 165.983 199.246 165.57 199.38C165.983 199.242 166.397 199.112 166.818 198.993Z" stroke="#C1ACA0" stroke-miterlimit="10"/>
<path d="M169.438 198.369C169.029 198.45 168.619 198.534 168.213 198.63C168.619 198.534 169.029 198.446 169.438 198.369Z" stroke="#C1ACA0" stroke-miterlimit="10"/>
<path d="M170.905 198.124C170.484 198.185 170.066 198.254 169.649 198.331C170.066 198.254 170.484 198.181 170.905 198.124Z" stroke="#C1ACA0" stroke-miterlimit="10"/>
<path d="M172.188 197.971C171.775 198.013 171.365 198.059 170.959 198.116" stroke="#C1ACA0" stroke-miterlimit="10"/>
<path d="M173.647 197.863C173.23 197.882 172.816 197.913 172.406 197.951C172.816 197.913 173.23 197.886 173.647 197.863Z" stroke="#C1ACA0" stroke-miterlimit="10"/>
<path d="M258.545 281.172C258.545 282.463 258.457 283.73 258.3 284.979C258.3 284.983 258.3 284.99 258.304 284.994C258.461 283.742 258.545 282.466 258.545 281.172Z" stroke="#C1ACA0" stroke-miterlimit="10"/>
<path d="M261.682 295.752C275.979 339.528 292.823 369.753 310.486 389.424C334.113 415.735 375.33 384.104 356.031 354.476C342.592 333.844 320.126 311.523 285.925 288.245C279.115 294.365 270.207 296.87 261.682 295.752Z" stroke="#C1ACA0" stroke-miterlimit="10"/>
<path d="M295.753 194.684C339.529 180.387 369.754 163.543 389.425 145.88C415.736 122.253 384.105 81.0357 354.477 100.335C333.845 113.774 311.524 136.24 288.246 170.441C294.366 177.251 296.871 186.159 295.753 194.684Z" stroke="#C1ACA0" stroke-miterlimit="10"/>
<path d="M281.172 197.821C282.463 197.821 283.731 197.909 284.979 198.066C284.983 198.066 284.991 198.066 284.995 198.063C283.742 197.906 282.467 197.821 281.172 197.821Z" stroke="#C1ACA0" stroke-miterlimit="10"/>
<path d="M194.685 160.614C180.388 116.838 163.544 86.6124 145.881 66.942C122.254 40.6305 81.0364 72.2617 100.335 101.89C113.775 122.522 136.241 144.842 170.442 168.121C177.251 162 186.16 159.496 194.685 160.614Z" stroke="#C1ACA0" stroke-miterlimit="10"/>
<path d="M197.822 175.194C197.822 173.904 197.91 172.636 198.067 171.387C198.067 171.384 198.067 171.376 198.063 171.372C197.906 172.624 197.822 173.9 197.822 175.19V175.194Z" stroke="#C1ACA0" stroke-miterlimit="10"/>
<path d="M257.702 168.082C257.603 167.664 257.495 167.247 257.377 166.833C257.495 167.247 257.603 167.66 257.702 168.082Z" stroke="#C1ACA0" stroke-miterlimit="10"/>
<path d="M258.243 170.905C258.181 170.483 258.112 170.062 258.036 169.645C258.112 170.062 258.185 170.479 258.243 170.905Z" stroke="#C1ACA0" stroke-miterlimit="10"/>
<path d="M257.997 169.437C257.917 169.024 257.833 168.614 257.737 168.208C257.833 168.614 257.921 169.024 257.997 169.437Z" stroke="#C1ACA0" stroke-miterlimit="10"/>
<path d="M258.545 175.194C258.545 174.757 258.533 174.328 258.514 173.896C258.533 174.324 258.545 174.757 258.545 175.194Z" stroke="#C1ACA0" stroke-miterlimit="10"/>
<path d="M273.501 161.383C302.087 128.799 318.786 100.43 326.668 76.2829C337.64 42.6678 289.64 22.7867 273.631 54.3145C261.869 77.474 253.509 110.27 250.87 155.026C253.539 158.028 255.627 161.563 256.944 165.455C256.55 164.294 256.094 163.164 255.569 162.073C261.349 160.043 267.614 159.817 273.505 161.387L273.501 161.383Z" stroke="#C1ACA0" stroke-miterlimit="10"/>
<path d="M258.396 172.187C258.354 171.774 258.308 171.364 258.25 170.954" stroke="#C1ACA0" stroke-miterlimit="10"/>
<path d="M258.503 173.647C258.484 173.23 258.453 172.816 258.415 172.406C258.453 172.816 258.48 173.234 258.503 173.647Z" stroke="#C1ACA0" stroke-miterlimit="10"/>
<path d="M257.373 166.822C257.251 166.4 257.12 165.983 256.982 165.569" stroke="#C1ACA0" stroke-miterlimit="10"/>
<path d="M237.526 47.3935C230.223 12.798 178.71 19.5769 180.61 54.8887C181.974 80.2657 190.771 112.008 209.97 150.905C215.045 147.094 221.349 144.834 228.185 144.834C230.338 144.834 232.436 145.06 234.466 145.489C242.509 104.034 242.689 71.8207 237.53 47.3935H237.526Z" stroke="#C1ACA0" stroke-miterlimit="10"/>
<path d="M408.972 237.526C443.568 230.222 436.789 178.71 401.481 180.61C376.104 181.973 344.362 190.771 305.465 209.97C309.276 215.045 311.536 221.349 311.536 228.185C311.536 230.337 311.31 232.436 310.881 234.466C352.336 242.509 384.549 242.689 408.976 237.53L408.972 237.526Z" stroke="#C1ACA0" stroke-miterlimit="10"/>
<path d="M294.979 273.5C327.564 302.087 355.932 318.785 380.08 326.667C413.695 337.64 433.576 289.639 402.048 273.63C378.888 261.869 346.093 253.508 301.337 250.869C298.334 253.539 294.799 255.622 290.912 256.943C292.072 256.549 293.202 256.093 294.293 255.568C296.323 261.348 296.549 267.614 294.979 273.504V273.5Z" stroke="#C1ACA0" stroke-miterlimit="10"/>
<path d="M288.284 257.702C288.702 257.602 289.115 257.495 289.525 257.376" stroke="#C1ACA0" stroke-miterlimit="10"/>
<path d="M285.461 258.242C285.883 258.181 286.304 258.112 286.718 258.035C286.3 258.112 285.883 258.185 285.461 258.242Z" stroke="#C1ACA0" stroke-miterlimit="10"/>
<path d="M289.544 257.372C289.965 257.253 290.379 257.119 290.793 256.981C290.379 257.119 289.962 257.25 289.544 257.372Z" stroke="#C1ACA0" stroke-miterlimit="10"/>
<path d="M286.929 257.997C287.342 257.916 287.748 257.832 288.154 257.736C287.748 257.832 287.339 257.92 286.929 257.997Z" stroke="#C1ACA0" stroke-miterlimit="10"/>
<path d="M281.172 258.544C281.609 258.544 282.038 258.533 282.471 258.514C282.042 258.533 281.609 258.544 281.172 258.544Z" stroke="#C1ACA0" stroke-miterlimit="10"/>
<path d="M282.715 258.502C283.133 258.483 283.546 258.452 283.956 258.414C283.546 258.452 283.133 258.479 282.715 258.502Z" stroke="#C1ACA0" stroke-miterlimit="10"/>
<path d="M284.178 258.392C284.592 258.35 285.002 258.304 285.408 258.246" stroke="#C1ACA0" stroke-miterlimit="10"/>
<path d="M250.87 155.026C253.508 110.27 261.873 77.4742 273.631 54.3147C289.64 22.7869 337.64 42.668 326.667 76.2831C318.785 100.431 302.087 128.799 273.5 161.384C275.837 162.008 278.112 162.912 280.276 164.099C306.859 133.475 324.63 104.751 333.224 78.424C336.916 67.1181 335.342 55.9156 328.793 46.8924C321.949 37.4593 310.329 31.5957 298.468 31.5957C285.105 31.5957 273.811 38.7385 267.488 51.1934C254.918 75.9422 247.166 108.906 244.324 149.48C246.764 151.012 248.966 152.881 250.873 155.026H250.87Z" stroke="#C1ACA0" stroke-miterlimit="10"/>
<path d="M204.75 155.887C206.286 154.026 208.036 152.352 209.97 150.905C190.771 112.004 181.977 80.2659 180.61 54.8889C178.71 19.581 230.223 12.7982 237.526 47.3938C242.685 71.8171 242.505 104.031 234.462 145.489C236.768 145.976 238.978 146.723 241.058 147.699C248.955 107.424 250.046 73.3108 244.275 45.9729C242.394 37.0607 237.856 29.6996 231.146 24.6786C225.19 20.2206 217.592 17.7656 209.756 17.7656C199.442 17.7656 189.653 21.8521 182.904 28.9719C176.351 35.8888 173.176 44.9771 173.732 55.2604C175.275 83.9656 185.696 117.722 204.754 155.891L204.75 155.887Z" stroke="#C1ACA0" stroke-miterlimit="10"/>
<path d="M170.442 168.121C136.244 144.842 113.774 122.522 100.335 101.89C81.0362 72.2618 122.254 40.6306 145.88 66.9421C163.544 86.6125 180.388 116.838 194.685 160.614C196.757 160.886 198.81 161.372 200.801 162.069C199.419 164.949 198.48 168.079 198.067 171.372C198.067 171.376 198.067 171.384 198.071 171.388C198.576 167.355 199.871 163.567 201.797 160.185C188.002 117.401 170.966 84.5558 151.012 62.3347C143.896 54.4106 134.911 50.2207 125.034 50.2207C111.806 50.2207 99.075 57.9303 92.6063 69.8643C86.444 81.2353 87.1563 94.28 94.5596 105.651C109.37 128.385 133.268 151.062 165.83 173.318C166.834 171.885 167.971 170.522 169.247 169.243C169.637 168.852 170.036 168.481 170.442 168.117V168.121Z" stroke="#C1ACA0" stroke-miterlimit="10"/>
<path d="M51.1974 188.878C75.9463 201.448 108.91 209.2 149.484 212.042C151.016 209.602 152.885 207.4 155.03 205.492C110.274 202.854 77.4783 194.493 54.3188 182.731C22.791 166.722 42.672 118.722 76.2872 129.695C100.435 137.577 128.803 154.275 161.388 182.861C162.012 180.525 162.916 178.25 164.103 176.086C133.479 149.503 104.755 131.732 78.4281 123.138C74.4565 121.839 70.4657 121.185 66.5745 121.185C58.2445 121.185 50.5157 124.134 44.2232 129.718C38.5587 134.742 34.4416 141.671 32.63 149.231C30.8223 156.787 31.3738 164.382 34.2309 171.188C37.3944 178.733 43.2618 184.849 51.1974 188.878Z" stroke="#C1ACA0" stroke-miterlimit="10"/>
<path d="M53.0051 282.7C53.7558 282.7 54.4911 282.681 55.2571 282.638C83.9623 281.095 117.719 270.674 155.888 251.616C154.027 250.08 152.353 248.33 150.905 246.396C112.005 265.595 80.2664 274.389 54.8895 275.756C19.5815 277.656 12.7988 226.143 47.3982 218.84C71.8215 213.681 104.035 213.861 145.494 221.904C145.976 219.602 146.727 217.396 147.7 215.316C124.41 210.755 103.112 208.449 84.0887 208.449C70.2474 208.449 57.4249 209.675 45.9773 212.091C36.2723 214.14 28.4899 219.276 23.4765 226.94C19.0453 233.715 17.0921 242.118 17.9768 250.609C18.8615 259.096 22.4999 266.947 28.218 272.723C34.6829 279.249 43.2542 282.7 53.0051 282.704H53.0128L53.0051 282.7Z" stroke="#C1ACA0" stroke-miterlimit="10"/>
<path d="M169.247 287.12C168.856 286.729 168.485 286.331 168.121 285.925C144.842 320.122 122.522 342.592 101.89 356.031C72.2619 375.33 40.6306 334.113 66.9421 310.486C86.6125 292.822 116.834 275.979 160.614 261.681C160.886 259.609 161.372 257.56 162.069 255.565C164.949 256.948 168.079 257.886 171.372 258.3C171.376 258.3 171.384 258.3 171.388 258.296C167.355 257.79 163.567 256.496 160.185 254.569C117.401 268.365 84.5559 285.4 62.3347 305.354C50.9063 315.614 47.2679 330.053 52.5991 343.975C58.0835 358.295 71.5074 367.916 86.0036 367.916C92.8132 367.916 99.4236 365.859 105.647 361.803C128.382 346.993 151.058 323.094 173.314 290.532C171.882 289.529 170.518 288.391 169.239 287.116L169.247 287.12Z" stroke="#C1ACA0" stroke-miterlimit="10"/>
<path d="M176.091 292.263C149.507 322.887 131.736 351.611 123.142 377.938C119.45 389.244 121.024 400.442 127.573 409.469C134.417 418.902 146.037 424.766 157.898 424.766C171.261 424.766 182.555 417.623 188.879 405.168C201.448 380.42 209.2 347.456 212.042 306.881C209.602 305.349 207.4 303.481 205.493 301.336C202.854 346.092 194.489 378.888 182.732 402.047C166.723 433.575 118.722 413.694 129.695 380.079" stroke="#C1ACA0" stroke-miterlimit="10"/>
<path d="M251.617 300.477C250.081 302.339 248.33 304.012 246.396 305.46C265.596 344.361 274.389 376.099 275.756 401.476C277.656 436.784 226.144 443.567 218.84 408.971C213.681 384.548 213.861 352.334 221.904 310.876C219.598 310.389 217.389 309.642 215.309 308.666C207.412 348.941 206.32 383.054 212.092 410.392C213.972 419.304 218.511 426.665 225.221 431.686C231.176 436.144 238.775 438.599 246.611 438.599C256.925 438.599 266.71 434.513 273.462 427.393C280.019 420.476 283.19 411.384 282.639 401.105C281.095 372.399 270.674 338.643 251.617 300.474V300.477Z" stroke="#C1ACA0" stroke-miterlimit="10"/>
<path d="M285.925 288.245C320.122 311.523 342.592 333.84 356.032 354.476C375.331 384.104 334.113 415.735 310.486 389.424C292.823 369.753 275.979 339.528 261.682 295.752C259.61 295.48 257.561 294.993 255.569 294.296C256.952 291.42 257.89 288.287 258.304 284.993C258.304 284.99 258.304 284.982 258.3 284.978C257.794 289.011 256.5 292.799 254.573 296.181C268.369 338.965 285.404 371.81 305.358 394.031C312.474 401.955 321.459 406.145 331.336 406.145C344.565 406.145 357.292 398.435 363.76 386.501C369.927 375.13 369.214 362.086 361.807 350.715C346.997 327.98 323.098 305.303 290.536 283.048C289.533 284.48 288.395 285.844 287.12 287.123C286.729 287.514 286.331 287.885 285.925 288.249V288.245Z" stroke="#C1ACA0" stroke-miterlimit="10"/>
<path d="M405.169 267.484C380.42 254.914 347.456 247.162 306.882 244.32C305.35 246.76 303.481 248.962 301.336 250.869C346.093 253.508 378.888 261.869 402.048 273.631C433.576 289.64 413.695 337.64 380.079 326.667C355.932 318.785 327.564 302.087 294.979 273.5C294.355 275.837 293.451 278.112 292.263 280.276C322.887 306.859 351.612 324.63 377.939 333.224C381.91 334.519 385.897 335.177 389.792 335.177H389.796C398.122 335.177 405.851 332.228 412.14 326.648C417.804 321.623 421.921 314.695 423.733 307.139C425.544 299.582 424.989 291.987 422.136 285.178C418.972 277.633 413.105 271.516 405.169 267.484Z" stroke="#C1ACA0" stroke-miterlimit="10"/>
<path d="M438.394 205.749C437.509 197.262 433.871 189.411 428.153 183.639C421.688 177.113 413.116 173.666 403.365 173.666C402.611 173.666 401.876 173.685 401.11 173.727C372.404 175.271 338.648 185.692 300.479 204.75C302.34 206.285 304.014 208.036 305.461 209.97C344.362 190.77 376.1 181.977 401.477 180.61C436.785 178.71 443.568 230.222 408.969 237.526C384.545 242.685 352.332 242.505 310.873 234.462C310.391 236.764 309.64 238.97 308.667 241.049C331.953 245.611 353.255 247.916 372.278 247.916H372.282C386.119 247.916 398.942 246.691 410.389 244.274C420.094 242.225 427.877 237.089 432.89 229.422C437.321 222.647 439.275 214.24 438.386 205.749H438.394Z" stroke="#C1ACA0" stroke-miterlimit="10"/>
<path d="M287.12 169.246C287.511 169.637 287.882 170.035 288.246 170.441C311.524 136.244 333.845 113.773 354.477 100.334C384.105 81.0354 415.736 122.253 389.425 145.88C369.754 163.543 339.528 180.387 295.753 194.684C295.481 196.756 294.994 198.805 294.297 200.797C291.417 199.414 288.288 198.476 284.994 198.062C284.991 198.062 284.983 198.062 284.979 198.066C289.012 198.571 292.8 199.866 296.182 201.792C338.966 187.997 371.811 170.962 394.032 151.008C405.46 140.744 409.099 126.309 403.768 112.387C398.283 98.067 384.855 88.4463 370.363 88.4463C363.554 88.4463 356.943 90.5029 350.716 94.5588C327.981 109.369 305.304 133.268 283.049 165.83C284.481 166.833 285.845 167.971 287.124 169.246H287.12Z" stroke="#C1ACA0" stroke-miterlimit="10"/>
<path d="M280.047 198.178H257.821V175.952C257.821 159.482 244.47 146.131 228 146.131C211.53 146.131 198.178 159.482 198.178 175.952V198.178H175.953C159.482 198.178 146.131 211.53 146.131 228C146.131 244.47 159.482 257.821 175.953 257.821H198.178V280.047C198.178 296.517 211.53 309.869 228 309.869C244.47 309.869 257.821 296.517 257.821 280.047V257.821H280.047C296.517 257.821 309.869 244.47 309.869 228C309.869 211.53 296.517 198.178 280.047 198.178Z" stroke="#C1ACA0" stroke-miterlimit="10"/>
<path d="M197.822 197.821V175.194C197.822 170.495 198.891 166.041 200.798 162.069C190.128 158.32 177.776 160.713 169.247 169.246C160.714 177.779 158.324 190.127 162.074 200.797C166.045 198.89 170.496 197.821 175.199 197.821H197.826H197.822Z" stroke="#C1ACA0" stroke-miterlimit="10"/>
<path d="M258.545 258.544V281.171C258.545 285.871 257.477 290.325 255.569 294.296C266.239 298.046 278.587 295.652 287.12 287.123C295.653 278.59 298.043 266.242 294.297 255.572C290.326 257.48 285.875 258.548 281.172 258.548H258.545V258.544Z" stroke="#C1ACA0" stroke-miterlimit="10"/>
<path d="M258.545 197.821H281.172C285.872 197.821 290.326 198.89 294.297 200.797C298.047 190.127 295.653 177.78 287.12 169.247C278.587 160.713 266.239 158.324 255.569 162.069C257.477 166.041 258.545 170.491 258.545 175.194V197.821Z" stroke="#C1ACA0" stroke-miterlimit="10"/>
<path d="M197.822 258.544H175.195C170.496 258.544 166.041 257.476 162.07 255.568C158.32 266.238 160.714 278.586 169.247 287.119C177.78 295.652 190.128 298.042 200.798 294.296C198.89 290.325 197.822 285.874 197.822 281.171V258.544Z" stroke="#C1ACA0" stroke-miterlimit="10"/>
<path d="M228 455C353.369 455 455 353.369 455 228C455 102.631 353.369 1 228 1C102.631 1 1 102.631 1 228C1 353.369 102.631 455 228 455Z" stroke="#C1ACA0" stroke-miterlimit="10"/>
</svg>
