<svg width="1019" height="977" viewBox="0 0 1019 977" fill="none" xmlns="http://www.w3.org/2000/svg">
<g style="mix-blend-mode:darken">
<path d="M494.476 641.4H485.767V632.689C485.767 626.234 480.535 621 474.081 621C467.628 621 462.395 626.234 462.395 632.689V641.4H453.686C447.232 641.4 442 646.634 442 653.089C442 659.544 447.232 664.778 453.686 664.778H462.395V673.49C462.395 679.945 467.628 685.178 474.081 685.178C480.535 685.178 485.767 679.945 485.767 673.49V664.778H494.476C500.93 664.778 506.162 659.544 506.162 653.089C506.162 646.634 500.93 641.4 494.476 641.4Z" stroke="#FFF" stroke-miterlimit="10"/>
<path d="M604.392 641.4H595.683V632.689C595.683 626.234 590.45 621 583.997 621C577.543 621 572.311 626.234 572.311 632.689V641.4H563.602C557.148 641.4 551.916 646.634 551.916 653.089C551.916 659.544 557.148 664.778 563.602 664.778H572.311V673.49C572.311 679.945 577.543 685.178 583.997 685.178C590.45 685.178 595.683 679.945 595.683 673.49V664.778H604.392C610.846 664.778 616.078 659.544 616.078 653.089C616.078 646.634 610.846 641.4 604.392 641.4Z" stroke="#FFF" stroke-miterlimit="10"/>
<path d="M714.313 641.4H705.603V632.689C705.603 626.234 700.371 621 693.917 621C687.464 621 682.231 626.234 682.231 632.689V641.4H673.522C667.069 641.4 661.836 646.634 661.836 653.089C661.836 659.544 667.069 664.778 673.522 664.778H682.231V673.49C682.231 679.945 687.464 685.178 693.917 685.178C700.371 685.178 705.603 679.945 705.603 673.49V664.778H714.313C720.766 664.778 725.999 659.544 725.999 653.089C725.999 646.634 720.766 641.4 714.313 641.4Z" stroke="#FFF" stroke-miterlimit="10"/>
<path d="M824.233 641.4H815.524V632.689C815.524 626.234 810.292 621 803.838 621C797.385 621 792.152 626.234 792.152 632.689V641.4H783.443C776.989 641.4 771.757 646.634 771.757 653.089C771.757 659.544 776.989 664.778 783.443 664.778H792.152V673.49C792.152 679.945 797.385 685.178 803.838 685.178C810.292 685.178 815.524 679.945 815.524 673.49V664.778H824.233C830.687 664.778 835.919 659.544 835.919 653.089C835.919 646.634 830.687 641.4 824.233 641.4Z" stroke="#FFF" stroke-miterlimit="10"/>
<path d="M933.478 641.4H924.769V632.689C924.769 626.234 919.537 621 913.083 621C906.63 621 901.397 626.234 901.397 632.689V641.4H892.688C886.234 641.4 881.002 646.634 881.002 653.089C881.002 659.544 886.234 664.778 892.688 664.778H901.397V673.49C901.397 679.945 906.63 685.178 913.083 685.178C919.537 685.178 924.769 679.945 924.769 673.49V664.778H933.478C939.932 664.778 945.164 659.544 945.164 653.089C945.164 646.634 939.932 641.4 933.478 641.4Z" stroke="#FFF" stroke-miterlimit="10"/>
<path d="M549.434 698.236H540.725V689.524C540.725 683.069 535.492 677.835 529.039 677.835C522.585 677.835 517.353 683.069 517.353 689.524V698.236H508.644C502.19 698.236 496.958 703.47 496.958 709.925C496.958 716.38 502.19 721.614 508.644 721.614H517.353V730.325C517.353 736.78 522.585 742.014 529.039 742.014C535.492 742.014 540.725 736.78 540.725 730.325V721.614H549.434C555.888 721.614 561.12 716.38 561.12 709.925C561.12 703.47 555.888 698.236 549.434 698.236Z" stroke="#FFF" stroke-miterlimit="10"/>
<path d="M659.355 698.236H650.646V689.524C650.646 683.069 645.413 677.835 638.96 677.835C632.506 677.835 627.274 683.069 627.274 689.524V698.236H618.564C612.111 698.236 606.878 703.47 606.878 709.925C606.878 716.38 612.111 721.614 618.564 721.614H627.274V730.325C627.274 736.78 632.506 742.014 638.96 742.014C645.413 742.014 650.646 736.78 650.646 730.325V721.614H659.355C665.808 721.614 671.041 716.38 671.041 709.925C671.041 703.47 665.808 698.236 659.355 698.236Z" stroke="#FFF" stroke-miterlimit="10"/>
<path d="M769.276 698.236H760.566V689.524C760.566 683.069 755.334 677.835 748.88 677.835C742.427 677.835 737.194 683.069 737.194 689.524V698.236H728.485C722.032 698.236 716.799 703.47 716.799 709.925C716.799 716.38 722.032 721.614 728.485 721.614H737.194V730.325C737.194 736.78 742.427 742.014 748.88 742.014C755.334 742.014 760.566 736.78 760.566 730.325V721.614H769.276C775.729 721.614 780.961 716.38 780.961 709.925C780.961 703.47 775.729 698.236 769.276 698.236Z" stroke="#FFF" stroke-miterlimit="10"/>
<path d="M879.196 698.236H870.487V689.524C870.487 683.069 865.254 677.835 858.801 677.835C852.347 677.835 847.115 683.069 847.115 689.524V698.236H838.405C831.952 698.236 826.719 703.47 826.719 709.925C826.719 716.38 831.952 721.614 838.405 721.614H847.115V730.325C847.115 736.78 852.347 742.014 858.801 742.014C865.254 742.014 870.487 736.78 870.487 730.325V721.614H879.196C885.649 721.614 890.882 716.38 890.882 709.925C890.882 703.47 885.649 698.236 879.196 698.236Z" stroke="#FFF" stroke-miterlimit="10"/>
<path d="M494.476 755.071H485.767V746.36C485.767 739.905 480.535 734.671 474.081 734.671C467.628 734.671 462.395 739.905 462.395 746.36V755.071H453.686C447.232 755.071 442 760.305 442 766.76C442 773.215 447.232 778.449 453.686 778.449H462.395V787.16C462.395 793.616 467.628 798.849 474.081 798.849C480.535 798.849 485.767 793.616 485.767 787.16V778.449H494.476C500.93 778.449 506.162 773.215 506.162 766.76C506.162 760.305 500.93 755.071 494.476 755.071Z" stroke="#FFF" stroke-miterlimit="10"/>
<path d="M604.392 755.071H595.683V746.36C595.683 739.905 590.45 734.671 583.997 734.671C577.543 734.671 572.311 739.905 572.311 746.36V755.071H563.602C557.148 755.071 551.916 760.305 551.916 766.76C551.916 773.215 557.148 778.449 563.602 778.449H572.311V787.16C572.311 793.616 577.543 798.849 583.997 798.849C590.45 798.849 595.683 793.616 595.683 787.16V778.449H604.392C610.846 778.449 616.078 773.215 616.078 766.76C616.078 760.305 610.846 755.071 604.392 755.071Z" stroke="#FFF" stroke-miterlimit="10"/>
<path d="M714.313 755.071H705.603V746.36C705.603 739.905 700.371 734.671 693.917 734.671C687.464 734.671 682.231 739.905 682.231 746.36V755.071H673.522C667.069 755.071 661.836 760.305 661.836 766.76C661.836 773.215 667.069 778.449 673.522 778.449H682.231V787.16C682.231 793.616 687.464 798.849 693.917 798.849C700.371 798.849 705.603 793.616 705.603 787.16V778.449H714.313C720.766 778.449 725.999 773.215 725.999 766.76C725.999 760.305 720.766 755.071 714.313 755.071Z" stroke="#FFF" stroke-miterlimit="10"/>
<path d="M824.233 755.071H815.524V746.36C815.524 739.905 810.292 734.671 803.838 734.671C797.385 734.671 792.152 739.905 792.152 746.36V755.071H783.443C776.989 755.071 771.757 760.305 771.757 766.76C771.757 773.215 776.989 778.449 783.443 778.449H792.152V787.16C792.152 793.616 797.385 798.849 803.838 798.849C810.292 798.849 815.524 793.616 815.524 787.16V778.449H824.233C830.687 778.449 835.919 773.215 835.919 766.76C835.919 760.305 830.687 755.071 824.233 755.071Z" stroke="#FFF" stroke-miterlimit="10"/>
<path d="M933.478 755.071H924.769V746.36C924.769 739.905 919.537 734.671 913.083 734.671C906.63 734.671 901.397 739.905 901.397 746.36V755.071H892.688C886.234 755.071 881.002 760.305 881.002 766.76C881.002 773.215 886.234 778.449 892.688 778.449H901.397V787.16C901.397 793.616 906.63 798.849 913.083 798.849C919.537 798.849 924.769 793.616 924.769 787.16V778.449H933.478C939.932 778.449 945.164 773.215 945.164 766.76C945.164 760.305 939.932 755.071 933.478 755.071Z" stroke="#FFF" stroke-miterlimit="10"/>
<path d="M549.352 818.83H540.642V810.119C540.642 803.664 535.41 798.43 528.956 798.43C522.503 798.43 517.27 803.664 517.27 810.119V818.83H508.561C502.108 818.83 496.875 824.064 496.875 830.519C496.875 836.974 502.108 842.208 508.561 842.208H517.27V850.919C517.27 857.375 522.503 862.608 528.956 862.608C535.41 862.608 540.642 857.375 540.642 850.919V842.208H549.352C555.805 842.208 561.038 836.974 561.038 830.519C561.038 824.064 555.805 818.83 549.352 818.83Z" stroke="#FFF" stroke-miterlimit="10"/>
<path d="M659.267 818.83H650.558V810.119C650.558 803.664 645.326 798.43 638.872 798.43C632.419 798.43 627.186 803.664 627.186 810.119V818.83H618.477C612.023 818.83 606.791 824.064 606.791 830.519C606.791 836.974 612.023 842.208 618.477 842.208H627.186V850.919C627.186 857.374 632.419 862.608 638.872 862.608C645.326 862.608 650.558 857.374 650.558 850.919V842.208H659.267C665.721 842.208 670.953 836.974 670.953 830.519C670.953 824.064 665.721 818.83 659.267 818.83Z" stroke="#FFF" stroke-miterlimit="10"/>
<path d="M769.188 818.83H760.479V810.119C760.479 803.664 755.246 798.43 748.793 798.43C742.339 798.43 737.107 803.664 737.107 810.119V818.83H728.397C721.944 818.83 716.711 824.064 716.711 830.519C716.711 836.974 721.944 842.208 728.397 842.208H737.107V850.919C737.107 857.374 742.339 862.608 748.793 862.608C755.246 862.608 760.479 857.374 760.479 850.919V842.208H769.188C775.641 842.208 780.874 836.974 780.874 830.519C780.874 824.064 775.641 818.83 769.188 818.83Z" stroke="#FFF" stroke-miterlimit="10"/>
<path d="M879.109 818.83H870.399V810.119C870.399 803.664 865.167 798.43 858.713 798.43C852.26 798.43 847.027 803.664 847.027 810.119V818.83H838.318C831.865 818.83 826.632 824.064 826.632 830.519C826.632 836.974 831.865 842.208 838.318 842.208H847.027V850.919C847.027 857.374 852.26 862.608 858.713 862.608C865.167 862.608 870.399 857.374 870.399 850.919V842.208H879.109C885.562 842.208 890.794 836.974 890.794 830.519C890.794 824.064 885.562 818.83 879.109 818.83Z" stroke="#FFF" stroke-miterlimit="10"/>
<path d="M998.476 818.83H989.767V810.119C989.767 803.664 984.535 798.43 978.081 798.43C971.628 798.43 966.395 803.664 966.395 810.119V818.83H957.686C951.232 818.83 946 824.064 946 830.519C946 836.974 951.232 842.208 957.686 842.208H966.395V850.919C966.395 857.374 971.628 862.608 978.081 862.608C984.535 862.608 989.767 857.374 989.767 850.919V842.208H998.476C1004.93 842.208 1010.16 836.974 1010.16 830.519C1010.16 824.064 1004.93 818.83 998.476 818.83Z" stroke="#FFF" stroke-miterlimit="10"/>
<path d="M604.309 875.666H595.6V866.954C595.6 860.499 590.368 855.265 583.914 855.265C577.461 855.265 572.228 860.499 572.228 866.954V875.666H563.519C557.065 875.666 551.833 880.899 551.833 887.355C551.833 893.81 557.065 899.043 563.519 899.043H572.228V907.755C572.228 914.21 577.461 919.444 583.914 919.444C590.368 919.444 595.6 914.21 595.6 907.755V899.043H604.309C610.763 899.043 615.995 893.81 615.995 887.355C615.995 880.899 610.763 875.666 604.309 875.666Z" stroke="#FFF" stroke-miterlimit="10"/>
<path d="M494.476 875.666H485.767V866.954C485.767 860.499 480.535 855.265 474.081 855.265C467.628 855.265 462.395 860.499 462.395 866.954V875.666H453.686C447.232 875.666 442 880.899 442 887.355C442 893.81 447.232 899.043 453.686 899.043H462.395V907.755C462.395 914.21 467.628 919.444 474.081 919.444C480.535 919.444 485.767 914.21 485.767 907.755V899.043H494.476C500.93 899.043 506.162 893.81 506.162 887.355C506.162 880.899 500.93 875.666 494.476 875.666Z" stroke="#FFF" stroke-miterlimit="10"/>
<path d="M714.23 875.666H705.521V866.954C705.521 860.499 700.288 855.265 693.835 855.265C687.381 855.265 682.149 860.499 682.149 866.954V875.666H673.44C666.986 875.666 661.754 880.899 661.754 887.355C661.754 893.81 666.986 899.043 673.44 899.043H682.149V907.755C682.149 914.21 687.381 919.444 693.835 919.444C700.288 919.444 705.521 914.21 705.521 907.755V899.043H714.23C720.684 899.043 725.916 893.81 725.916 887.355C725.916 880.899 720.684 875.666 714.23 875.666Z" stroke="#FFF" stroke-miterlimit="10"/>
<path d="M824.151 875.666H815.441V866.954C815.441 860.499 810.209 855.265 803.756 855.265C797.302 855.265 792.07 860.499 792.07 866.954V875.666H783.36C776.907 875.666 771.674 880.899 771.674 887.355C771.674 893.81 776.907 899.043 783.36 899.043H792.07V907.755C792.07 914.21 797.302 919.444 803.756 919.444C810.209 919.444 815.441 914.21 815.441 907.755V899.043H824.151C830.604 899.043 835.837 893.81 835.837 887.355C835.837 880.899 830.604 875.666 824.151 875.666Z" stroke="#FFF" stroke-miterlimit="10"/>
<path d="M934.071 875.666H925.362V866.954C925.362 860.499 920.129 855.265 913.676 855.265C907.222 855.265 901.99 860.499 901.99 866.954V875.666H893.281C886.827 875.666 881.595 880.899 881.595 887.355C881.595 893.81 886.827 899.043 893.281 899.043H901.99V907.755C901.99 914.21 907.222 919.444 913.676 919.444C920.129 919.444 925.362 914.21 925.362 907.755V899.043H934.071C940.525 899.043 945.757 893.81 945.757 887.355C945.757 880.899 940.525 875.666 934.071 875.666Z" stroke="#FFF" stroke-miterlimit="10"/>
<path d="M549.352 932.501H540.642V923.79C540.642 917.335 535.41 912.101 528.956 912.101C522.503 912.101 517.27 917.335 517.27 923.79V932.501H508.561C502.108 932.501 496.875 937.735 496.875 944.19C496.875 950.645 502.108 955.879 508.561 955.879H517.27V964.59C517.27 971.045 522.503 976.279 528.956 976.279C535.41 976.279 540.642 971.045 540.642 964.59V955.879H549.352C555.805 955.879 561.038 950.645 561.038 944.19C561.038 937.735 555.805 932.501 549.352 932.501Z" stroke="#FFF" stroke-miterlimit="10"/>
<path d="M659.267 932.501H650.558V923.79C650.558 917.335 645.326 912.101 638.872 912.101C632.419 912.101 627.186 917.335 627.186 923.79V932.501H618.477C612.023 932.501 606.791 937.735 606.791 944.19C606.791 950.645 612.023 955.879 618.477 955.879H627.186V964.59C627.186 971.045 632.419 976.279 638.872 976.279C645.326 976.279 650.558 971.045 650.558 964.59V955.879H659.267C665.721 955.879 670.953 950.645 670.953 944.19C670.953 937.735 665.721 932.501 659.267 932.501Z" stroke="#FFF" stroke-miterlimit="10"/>
<path d="M769.188 932.501H760.479V923.79C760.479 917.335 755.246 912.101 748.793 912.101C742.339 912.101 737.107 917.335 737.107 923.79V932.501H728.397C721.944 932.501 716.711 937.735 716.711 944.19C716.711 950.645 721.944 955.879 728.397 955.879H737.107V964.59C737.107 971.045 742.339 976.279 748.793 976.279C755.246 976.279 760.479 971.045 760.479 964.59V955.879H769.188C775.641 955.879 780.874 950.645 780.874 944.19C780.874 937.735 775.641 932.501 769.188 932.501Z" stroke="#FFF" stroke-miterlimit="10"/>
<path d="M879.109 932.501H870.399V923.79C870.399 917.335 865.167 912.101 858.713 912.101C852.26 912.101 847.027 917.335 847.027 923.79V932.501H838.318C831.865 932.501 826.632 937.735 826.632 944.19C826.632 950.645 831.865 955.879 838.318 955.879H847.027V964.59C847.027 971.045 852.26 976.279 858.713 976.279C865.167 976.279 870.399 971.045 870.399 964.59V955.879H879.109C885.562 955.879 890.794 950.645 890.794 944.19C890.794 937.735 885.562 932.501 879.109 932.501Z" stroke="#FFF" stroke-miterlimit="10"/>
<path d="M998.476 932.501H989.767V923.79C989.767 917.335 984.535 912.101 978.081 912.101C971.628 912.101 966.395 917.335 966.395 923.79V932.501H957.686C951.232 932.501 946 937.735 946 944.19C946 950.645 951.232 955.879 957.686 955.879H966.395V964.59C966.395 971.045 971.628 976.279 978.081 976.279C984.535 976.279 989.767 971.045 989.767 964.59V955.879H998.476C1004.93 955.879 1010.16 950.645 1010.16 944.19C1010.16 937.735 1004.93 932.501 998.476 932.501Z" stroke="#FFF" stroke-miterlimit="10"/>
</g>
<path d="M55.4764 641.4H46.7672V632.689C46.7672 626.234 41.5347 621 35.0812 621C28.6277 621 23.3952 626.234 23.3952 632.689V641.4H14.686C8.23244 641.4 3 646.634 3 653.089C3 659.544 8.23244 664.778 14.686 664.778H23.3952V673.49C23.3952 679.945 28.6277 685.178 35.0812 685.178C41.5347 685.178 46.7672 679.945 46.7672 673.49V664.778H55.4764C61.93 664.778 67.1624 659.544 67.1624 653.089C67.1624 646.634 61.93 641.4 55.4764 641.4Z" stroke="#FFF" stroke-miterlimit="10"/>
<path d="M165.392 641.4H156.683V632.689C156.683 626.234 151.45 621 144.997 621C138.543 621 133.311 626.234 133.311 632.689V641.4H124.602C118.148 641.4 112.916 646.634 112.916 653.089C112.916 659.544 118.148 664.778 124.602 664.778H133.311V673.49C133.311 679.945 138.543 685.178 144.997 685.178C151.45 685.178 156.683 679.945 156.683 673.49V664.778H165.392C171.846 664.778 177.078 659.544 177.078 653.089C177.078 646.634 171.846 641.4 165.392 641.4Z" stroke="#FFF" stroke-miterlimit="10"/>
<path d="M275.313 641.4H266.603V632.689C266.603 626.234 261.371 621 254.917 621C248.464 621 243.231 626.234 243.231 632.689V641.4H234.522C228.069 641.4 222.836 646.634 222.836 653.089C222.836 659.544 228.069 664.778 234.522 664.778H243.231V673.49C243.231 679.945 248.464 685.178 254.917 685.178C261.371 685.178 266.603 679.945 266.603 673.49V664.778H275.313C281.766 664.778 286.999 659.544 286.999 653.089C286.999 646.634 281.766 641.4 275.313 641.4Z" stroke="#FFF" stroke-miterlimit="10"/>
<path d="M385.233 641.4H376.524V632.689C376.524 626.234 371.292 621 364.838 621C358.385 621 353.152 626.234 353.152 632.689V641.4H344.443C337.989 641.4 332.757 646.634 332.757 653.089C332.757 659.544 337.989 664.778 344.443 664.778H353.152V673.49C353.152 679.945 358.385 685.178 364.838 685.178C371.292 685.178 376.524 679.945 376.524 673.49V664.778H385.233C391.687 664.778 396.919 659.544 396.919 653.089C396.919 646.634 391.687 641.4 385.233 641.4Z" stroke="#FFF" stroke-miterlimit="10"/>
<path d="M494.478 641.4H485.769V632.689C485.769 626.234 480.537 621 474.083 621C467.63 621 462.397 626.234 462.397 632.689V641.4H453.688C447.234 641.4 442.002 646.634 442.002 653.089C442.002 659.544 447.234 664.778 453.688 664.778H462.397V673.49C462.397 679.945 467.63 685.178 474.083 685.178C480.537 685.178 485.769 679.945 485.769 673.49V664.778H494.478C500.932 664.778 506.164 659.544 506.164 653.089C506.164 646.634 500.932 641.4 494.478 641.4Z" stroke="#FFF" stroke-miterlimit="10"/>
<path d="M110.434 698.236H101.725V689.524C101.725 683.069 96.4926 677.835 90.0391 677.835C83.5856 677.835 78.3531 683.069 78.3531 689.524V698.236H69.6438C63.1903 698.236 57.9579 703.47 57.9579 709.925C57.9579 716.38 63.1903 721.614 69.6438 721.614H78.3531V730.325C78.3531 736.78 83.5856 742.014 90.0391 742.014C96.4926 742.014 101.725 736.78 101.725 730.325V721.614H110.434C116.888 721.614 122.12 716.38 122.12 709.925C122.12 703.47 116.888 698.236 110.434 698.236Z" stroke="#FFF" stroke-miterlimit="10"/>
<path d="M220.355 698.236H211.645V689.524C211.645 683.069 206.413 677.835 199.959 677.835C193.506 677.835 188.274 683.069 188.274 689.524V698.236H179.564C173.111 698.236 167.878 703.47 167.878 709.925C167.878 716.38 173.111 721.614 179.564 721.614H188.274V730.325C188.274 736.78 193.506 742.014 199.959 742.014C206.413 742.014 211.645 736.78 211.645 730.325V721.614H220.355C226.808 721.614 232.041 716.38 232.041 709.925C232.041 703.47 226.808 698.236 220.355 698.236Z" stroke="#FFF" stroke-miterlimit="10"/>
<path d="M330.276 698.236H321.566V689.524C321.566 683.069 316.334 677.835 309.88 677.835C303.427 677.835 298.194 683.069 298.194 689.524V698.236H289.485C283.032 698.236 277.799 703.47 277.799 709.925C277.799 716.38 283.032 721.614 289.485 721.614H298.194V730.325C298.194 736.78 303.427 742.014 309.88 742.014C316.334 742.014 321.566 736.78 321.566 730.325V721.614H330.276C336.729 721.614 341.961 716.38 341.961 709.925C341.961 703.47 336.729 698.236 330.276 698.236Z" stroke="#FFF" stroke-miterlimit="10"/>
<path d="M440.196 698.236H431.487V689.524C431.487 683.069 426.254 677.835 419.801 677.835C413.347 677.835 408.115 683.069 408.115 689.524V698.236H399.405C392.952 698.236 387.719 703.47 387.719 709.925C387.719 716.38 392.952 721.614 399.405 721.614H408.115V730.325C408.115 736.78 413.347 742.014 419.801 742.014C426.254 742.014 431.487 736.78 431.487 730.325V721.614H440.196C446.649 721.614 451.882 716.38 451.882 709.925C451.882 703.47 446.649 698.236 440.196 698.236Z" stroke="#FFF" stroke-miterlimit="10"/>
<path d="M55.4764 755.071H46.7672V746.36C46.7672 739.905 41.5347 734.671 35.0812 734.671C28.6277 734.671 23.3952 739.905 23.3952 746.36V755.071H14.686C8.23244 755.071 3 760.305 3 766.76C3 773.215 8.23244 778.449 14.686 778.449H23.3952V787.16C23.3952 793.616 28.6277 798.849 35.0812 798.849C41.5347 798.849 46.7672 793.616 46.7672 787.16V778.449H55.4764C61.93 778.449 67.1624 773.215 67.1624 766.76C67.1624 760.305 61.93 755.071 55.4764 755.071Z" stroke="#FFF" stroke-miterlimit="10"/>
<path d="M165.392 755.071H156.683V746.36C156.683 739.905 151.45 734.671 144.997 734.671C138.543 734.671 133.311 739.905 133.311 746.36V755.071H124.602C118.148 755.071 112.916 760.305 112.916 766.76C112.916 773.215 118.148 778.449 124.602 778.449H133.311V787.16C133.311 793.616 138.543 798.849 144.997 798.849C151.45 798.849 156.683 793.616 156.683 787.16V778.449H165.392C171.846 778.449 177.078 773.215 177.078 766.76C177.078 760.305 171.846 755.071 165.392 755.071Z" stroke="#FFF" stroke-miterlimit="10"/>
<path d="M275.313 755.071H266.603V746.36C266.603 739.905 261.371 734.671 254.917 734.671C248.464 734.671 243.231 739.905 243.231 746.36V755.071H234.522C228.069 755.071 222.836 760.305 222.836 766.76C222.836 773.215 228.069 778.449 234.522 778.449H243.231V787.16C243.231 793.616 248.464 798.849 254.917 798.849C261.371 798.849 266.603 793.616 266.603 787.16V778.449H275.313C281.766 778.449 286.999 773.215 286.999 766.76C286.999 760.305 281.766 755.071 275.313 755.071Z" stroke="#FFF" stroke-miterlimit="10"/>
<path d="M385.233 755.071H376.524V746.36C376.524 739.905 371.292 734.671 364.838 734.671C358.385 734.671 353.152 739.905 353.152 746.36V755.071H344.443C337.989 755.071 332.757 760.305 332.757 766.76C332.757 773.215 337.989 778.449 344.443 778.449H353.152V787.16C353.152 793.616 358.385 798.849 364.838 798.849C371.292 798.849 376.524 793.616 376.524 787.16V778.449H385.233C391.687 778.449 396.919 773.215 396.919 766.76C396.919 760.305 391.687 755.071 385.233 755.071Z" stroke="#FFF" stroke-miterlimit="10"/>
<path d="M494.478 755.071H485.769V746.36C485.769 739.905 480.537 734.671 474.083 734.671C467.63 734.671 462.397 739.905 462.397 746.36V755.071H453.688C447.234 755.071 442.002 760.305 442.002 766.76C442.002 773.215 447.234 778.449 453.688 778.449H462.397V787.16C462.397 793.616 467.63 798.849 474.083 798.849C480.537 798.849 485.769 793.616 485.769 787.16V778.449H494.478C500.932 778.449 506.164 773.215 506.164 766.76C506.164 760.305 500.932 755.071 494.478 755.071Z" stroke="#FFF" stroke-miterlimit="10"/>
<path d="M110.352 818.83H101.642V810.119C101.642 803.664 96.41 798.43 89.9564 798.43C83.5029 798.43 78.2705 803.664 78.2705 810.119V818.83H69.5612C63.1077 818.83 57.8752 824.064 57.8752 830.519C57.8752 836.974 63.1077 842.208 69.5612 842.208H78.2705V850.919C78.2705 857.375 83.5029 862.608 89.9564 862.608C96.41 862.608 101.642 857.375 101.642 850.919V842.208H110.352C116.805 842.208 122.038 836.974 122.038 830.519C122.038 824.064 116.805 818.83 110.352 818.83Z" stroke="#FFF" stroke-miterlimit="10"/>
<path d="M220.267 818.83H211.558V810.119C211.558 803.664 206.326 798.43 199.872 798.43C193.419 798.43 188.186 803.664 188.186 810.119V818.83H179.477C173.023 818.83 167.791 824.064 167.791 830.519C167.791 836.974 173.023 842.208 179.477 842.208H188.186V850.919C188.186 857.374 193.419 862.608 199.872 862.608C206.326 862.608 211.558 857.374 211.558 850.919V842.208H220.267C226.721 842.208 231.953 836.974 231.953 830.519C231.953 824.064 226.721 818.83 220.267 818.83Z" stroke="#FFF" stroke-miterlimit="10"/>
<path d="M330.188 818.83H321.479V810.119C321.479 803.664 316.246 798.43 309.793 798.43C303.339 798.43 298.107 803.664 298.107 810.119V818.83H289.397C282.944 818.83 277.711 824.064 277.711 830.519C277.711 836.974 282.944 842.208 289.397 842.208H298.107V850.919C298.107 857.374 303.339 862.608 309.793 862.608C316.246 862.608 321.479 857.374 321.479 850.919V842.208H330.188C336.641 842.208 341.874 836.974 341.874 830.519C341.874 824.064 336.641 818.83 330.188 818.83Z" stroke="#FFF" stroke-miterlimit="10"/>
<path d="M440.109 818.83H431.399V810.119C431.399 803.664 426.167 798.43 419.713 798.43C413.26 798.43 408.027 803.664 408.027 810.119V818.83H399.318C392.865 818.83 387.632 824.064 387.632 830.519C387.632 836.974 392.865 842.208 399.318 842.208H408.027V850.919C408.027 857.374 413.26 862.608 419.713 862.608C426.167 862.608 431.399 857.374 431.399 850.919V842.208H440.109C446.562 842.208 451.794 836.974 451.794 830.519C451.794 824.064 446.562 818.83 440.109 818.83Z" stroke="#FFF" stroke-miterlimit="10"/>
<path d="M165.31 875.666H156.6V866.954C156.6 860.499 151.368 855.265 144.914 855.265C138.461 855.265 133.228 860.499 133.228 866.954V875.666H124.519C118.066 875.666 112.833 880.899 112.833 887.355C112.833 893.81 118.066 899.043 124.519 899.043H133.228V907.755C133.228 914.21 138.461 919.444 144.914 919.444C151.368 919.444 156.6 914.21 156.6 907.755V899.043H165.31C171.763 899.043 176.996 893.81 176.996 887.355C176.996 880.899 171.763 875.666 165.31 875.666Z" stroke="#FFF" stroke-miterlimit="10"/>
<path d="M55.4765 875.666H46.7672V866.954C46.7672 860.499 41.5347 855.265 35.0812 855.265C28.6277 855.265 23.3952 860.499 23.3952 866.954V875.666H14.686C8.23244 875.666 3 880.899 3 887.355C3 893.81 8.23244 899.043 14.686 899.043H23.3952V907.755C23.3952 914.21 28.6277 919.444 35.0812 919.444C41.5347 919.444 46.7672 914.21 46.7672 907.755V899.043H55.4765C61.93 899.043 67.1624 893.81 67.1624 887.355C67.1624 880.899 61.93 875.666 55.4765 875.666Z" stroke="#FFF" stroke-miterlimit="10"/>
<path d="M275.23 875.666H266.521V866.954C266.521 860.499 261.288 855.265 254.835 855.265C248.381 855.265 243.149 860.499 243.149 866.954V875.666H234.439C227.986 875.666 222.754 880.899 222.754 887.355C222.754 893.81 227.986 899.043 234.439 899.043H243.149V907.755C243.149 914.21 248.381 919.444 254.835 919.444C261.288 919.444 266.521 914.21 266.521 907.755V899.043H275.23C281.683 899.043 286.916 893.81 286.916 887.355C286.916 880.899 281.683 875.666 275.23 875.666Z" stroke="#FFF" stroke-miterlimit="10"/>
<path d="M385.151 875.666H376.441V866.954C376.441 860.499 371.209 855.265 364.756 855.265C358.302 855.265 353.07 860.499 353.07 866.954V875.666H344.36C337.907 875.666 332.674 880.899 332.674 887.355C332.674 893.81 337.907 899.043 344.36 899.043H353.07V907.755C353.07 914.21 358.302 919.444 364.756 919.444C371.209 919.444 376.441 914.21 376.441 907.755V899.043H385.151C391.604 899.043 396.837 893.81 396.837 887.355C396.837 880.899 391.604 875.666 385.151 875.666Z" stroke="#FFF" stroke-miterlimit="10"/>
<path d="M495.071 875.666H486.362V866.954C486.362 860.499 481.129 855.265 474.676 855.265C468.222 855.265 462.99 860.499 462.99 866.954V875.666H454.281C447.827 875.666 442.595 880.899 442.595 887.355C442.595 893.81 447.827 899.043 454.281 899.043H462.99V907.755C462.99 914.21 468.222 919.444 474.676 919.444C481.129 919.444 486.362 914.21 486.362 907.755V899.043H495.071C501.525 899.043 506.757 893.81 506.757 887.355C506.757 880.899 501.525 875.666 495.071 875.666Z" stroke="#FFF" stroke-miterlimit="10"/>
<path d="M110.352 932.501H101.642V923.79C101.642 917.335 96.41 912.101 89.9564 912.101C83.5029 912.101 78.2705 917.335 78.2705 923.79V932.501H69.5612C63.1077 932.501 57.8752 937.735 57.8752 944.19C57.8752 950.645 63.1077 955.879 69.5612 955.879H78.2705V964.59C78.2705 971.045 83.5029 976.279 89.9564 976.279C96.41 976.279 101.642 971.045 101.642 964.59V955.879H110.352C116.805 955.879 122.038 950.645 122.038 944.19C122.038 937.735 116.805 932.501 110.352 932.501Z" stroke="#FFF" stroke-miterlimit="10"/>
<path d="M220.267 932.501H211.558V923.79C211.558 917.335 206.326 912.101 199.872 912.101C193.419 912.101 188.186 917.335 188.186 923.79V932.501H179.477C173.023 932.501 167.791 937.735 167.791 944.19C167.791 950.645 173.023 955.879 179.477 955.879H188.186V964.59C188.186 971.045 193.419 976.279 199.872 976.279C206.326 976.279 211.558 971.045 211.558 964.59V955.879H220.267C226.721 955.879 231.953 950.645 231.953 944.19C231.953 937.735 226.721 932.501 220.267 932.501Z" stroke="#FFF" stroke-miterlimit="10"/>
<path d="M330.188 932.501H321.479V923.79C321.479 917.335 316.246 912.101 309.793 912.101C303.339 912.101 298.107 917.335 298.107 923.79V932.501H289.397C282.944 932.501 277.711 937.735 277.711 944.19C277.711 950.645 282.944 955.879 289.397 955.879H298.107V964.59C298.107 971.045 303.339 976.279 309.793 976.279C316.246 976.279 321.479 971.045 321.479 964.59V955.879H330.188C336.641 955.879 341.874 950.645 341.874 944.19C341.874 937.735 336.641 932.501 330.188 932.501Z" stroke="#FFF" stroke-miterlimit="10"/>
<path d="M440.109 932.501H431.399V923.79C431.399 917.335 426.167 912.101 419.713 912.101C413.26 912.101 408.027 917.335 408.027 923.79V932.501H399.318C392.865 932.501 387.632 937.735 387.632 944.19C387.632 950.645 392.865 955.879 399.318 955.879H408.027V964.59C408.027 971.045 413.26 976.279 419.713 976.279C426.167 976.279 431.399 971.045 431.399 964.59V955.879H440.109C446.562 955.879 451.794 950.645 451.794 944.19C451.794 937.735 446.562 932.501 440.109 932.501Z" stroke="#FFF" stroke-miterlimit="10"/>
<path d="M50.6172 268.579H42.5343V260.494C42.5343 254.503 37.6781 249.646 31.6887 249.646C25.6994 249.646 20.8432 254.503 20.8432 260.494V268.579H12.7603C6.77093 268.579 1.91479 273.436 1.91479 279.427C1.91479 285.418 6.77093 290.275 12.7603 290.275H20.8432V298.36C20.8432 304.351 25.6994 309.208 31.6887 309.208C37.6781 309.208 42.5343 304.351 42.5343 298.36V290.275H50.6172C56.6066 290.275 61.4627 285.418 61.4627 279.427C61.4627 273.436 56.6066 268.579 50.6172 268.579Z" stroke="#FFF" stroke-width="2" stroke-miterlimit="10"/>
<path d="M152.628 268.579H144.545V260.494C144.545 254.503 139.689 249.646 133.699 249.646C127.71 249.646 122.854 254.503 122.854 260.494V268.579H114.771C108.782 268.579 103.925 273.436 103.925 279.427C103.925 285.418 108.782 290.275 114.771 290.275H122.854V298.36C122.854 304.351 127.71 309.208 133.699 309.208C139.689 309.208 144.545 304.351 144.545 298.36V290.275H152.628C158.617 290.275 163.473 285.418 163.473 279.427C163.473 273.436 158.617 268.579 152.628 268.579Z" stroke="#FFF" stroke-width="2" stroke-miterlimit="10"/>
<path d="M254.643 268.579H246.56V260.494C246.56 254.503 241.704 249.646 235.714 249.646C229.725 249.646 224.869 254.503 224.869 260.494V268.579H216.786C210.797 268.579 205.941 273.436 205.941 279.427C205.941 285.418 210.797 290.275 216.786 290.275H224.869V298.36C224.869 304.351 229.725 309.208 235.714 309.208C241.704 309.208 246.56 304.351 246.56 298.36V290.275H254.643C260.632 290.275 265.488 285.418 265.488 279.427C265.488 273.436 260.632 268.579 254.643 268.579Z" stroke="#FFF" stroke-width="2" stroke-miterlimit="10"/>
<path d="M356.658 268.579H348.575V260.494C348.575 254.503 343.719 249.646 337.73 249.646C331.74 249.646 326.884 254.503 326.884 260.494V268.579H318.801C312.812 268.579 307.956 273.436 307.956 279.427C307.956 285.418 312.812 290.275 318.801 290.275H326.884V298.36C326.884 304.351 331.74 309.208 337.73 309.208C343.719 309.208 348.575 304.351 348.575 298.36V290.275H356.658C362.647 290.275 367.503 285.418 367.503 279.427C367.503 273.436 362.647 268.579 356.658 268.579Z" stroke="#FFF" stroke-width="2" stroke-miterlimit="10"/>
<path d="M101.622 215.831H93.5395V207.746C93.5395 201.755 88.6834 196.897 82.694 196.897C76.7046 196.897 71.8485 201.755 71.8485 207.746V215.831H63.7656C57.7762 215.831 52.92 220.688 52.92 226.679C52.92 232.67 57.7762 237.527 63.7656 237.527H71.8485V245.612C71.8485 251.603 76.7046 256.46 82.694 256.46C88.6834 256.46 93.5395 251.603 93.5395 245.612V237.527H101.622C107.612 237.527 112.468 232.67 112.468 226.679C112.468 220.688 107.612 215.831 101.622 215.831Z" stroke="#FFF" stroke-width="2" stroke-miterlimit="10"/>
<path d="M203.638 215.831H195.555V207.746C195.555 201.755 190.699 196.897 184.709 196.897C178.72 196.897 173.864 201.755 173.864 207.746V215.831H165.781C159.791 215.831 154.935 220.688 154.935 226.679C154.935 232.67 159.791 237.527 165.781 237.527H173.864V245.612C173.864 251.603 178.72 256.46 184.709 256.46C190.699 256.46 195.555 251.603 195.555 245.612V237.527H203.638C209.627 237.527 214.483 232.67 214.483 226.679C214.483 220.688 209.627 215.831 203.638 215.831Z" stroke="#FFF" stroke-width="2" stroke-miterlimit="10"/>
<path d="M305.653 215.831H297.57V207.746C297.57 201.755 292.714 196.897 286.724 196.897C280.735 196.897 275.879 201.755 275.879 207.746V215.831H267.796C261.806 215.831 256.95 220.688 256.95 226.679C256.95 232.67 261.806 237.527 267.796 237.527H275.879V245.612C275.879 251.603 280.735 256.46 286.724 256.46C292.714 256.46 297.57 251.603 297.57 245.612V237.527H305.653C311.642 237.527 316.498 232.67 316.498 226.679C316.498 220.688 311.642 215.831 305.653 215.831Z" stroke="#FFF" stroke-width="2" stroke-miterlimit="10"/>
<path d="M407.668 215.831H399.585V207.746C399.585 201.755 394.729 196.897 388.74 196.897C382.75 196.897 377.894 201.755 377.894 207.746V215.831H369.811C363.822 215.831 358.966 220.688 358.966 226.679C358.966 232.67 363.822 237.527 369.811 237.527H377.894V245.612C377.894 251.603 382.75 256.46 388.74 256.46C394.729 256.46 399.585 251.603 399.585 245.612V237.527H407.668C413.657 237.527 418.513 232.67 418.513 226.679C418.513 220.688 413.657 215.831 407.668 215.831Z" stroke="#FFF" stroke-width="2" stroke-miterlimit="10"/>
<path d="M50.6172 163.083H42.5343V154.998C42.5343 149.007 37.6781 144.15 31.6887 144.15C25.6994 144.15 20.8432 149.007 20.8432 154.998V163.083H12.7603C6.77093 163.083 1.91479 167.94 1.91479 173.931C1.91479 179.922 6.77093 184.779 12.7603 184.779H20.8432V192.864C20.8432 198.855 25.6994 203.712 31.6887 203.712C37.6781 203.712 42.5343 198.855 42.5343 192.864V184.779H50.6172C56.6066 184.779 61.4627 179.922 61.4627 173.931C61.4627 167.94 56.6066 163.083 50.6172 163.083Z" stroke="#FFF" stroke-width="2" stroke-miterlimit="10"/>
<path d="M152.628 163.083H144.545V154.998C144.545 149.007 139.689 144.15 133.699 144.15C127.71 144.15 122.854 149.007 122.854 154.998V163.083H114.771C108.782 163.083 103.925 167.94 103.925 173.931C103.925 179.922 108.782 184.779 114.771 184.779H122.854V192.864C122.854 198.855 127.71 203.712 133.699 203.712C139.689 203.712 144.545 198.855 144.545 192.864V184.779H152.628C158.617 184.779 163.473 179.922 163.473 173.931C163.473 167.94 158.617 163.083 152.628 163.083Z" stroke="#FFF" stroke-width="2" stroke-miterlimit="10"/>
<path d="M254.643 163.083H246.56V154.998C246.56 149.007 241.704 144.15 235.714 144.15C229.725 144.15 224.869 149.007 224.869 154.998V163.083H216.786C210.797 163.083 205.941 167.94 205.941 173.931C205.941 179.922 210.797 184.779 216.786 184.779H224.869V192.864C224.869 198.855 229.725 203.712 235.714 203.712C241.704 203.712 246.56 198.855 246.56 192.864V184.779H254.643C260.632 184.779 265.488 179.922 265.488 173.931C265.488 167.94 260.632 163.083 254.643 163.083Z" stroke="#FFF" stroke-width="2" stroke-miterlimit="10"/>
<path d="M356.658 163.083H348.575V154.998C348.575 149.007 343.719 144.15 337.73 144.15C331.74 144.15 326.884 149.007 326.884 154.998V163.083H318.801C312.812 163.083 307.956 167.94 307.956 173.931C307.956 179.922 312.812 184.779 318.801 184.779H326.884V192.864C326.884 198.855 331.74 203.712 337.73 203.712C343.719 203.712 348.575 198.855 348.575 192.864V184.779H356.658C362.647 184.779 367.503 179.922 367.503 173.931C367.503 167.94 362.647 163.083 356.658 163.083Z" stroke="#FFF" stroke-width="2" stroke-miterlimit="10"/>
<path d="M101.622 4.84356H93.5395V-3.24138C93.5395 -9.23226 88.6834 -14.0896 82.694 -14.0896C76.7046 -14.0896 71.8485 -9.23226 71.8485 -3.24138V4.84356H63.7656C57.7762 4.84356 52.92 9.7009 52.92 15.6918C52.92 21.6827 57.7762 26.54 63.7656 26.54H71.8485V34.6249C71.8485 40.6158 76.7046 45.4732 82.694 45.4732C88.6834 45.4732 93.5395 40.6158 93.5395 34.6249V26.54H101.622C107.612 26.54 112.468 21.6827 112.468 15.6918C112.468 9.7009 107.612 4.84356 101.622 4.84356Z" stroke="#FFF" stroke-width="2" stroke-miterlimit="10"/>
<path d="M203.638 4.84356H195.555V-3.24138C195.555 -9.23226 190.699 -14.0896 184.709 -14.0896C178.72 -14.0896 173.864 -9.23226 173.864 -3.24138V4.84356H165.781C159.791 4.84356 154.935 9.7009 154.935 15.6918C154.935 21.6827 159.791 26.54 165.781 26.54H173.864V34.6249C173.864 40.6158 178.72 45.4732 184.709 45.4732C190.699 45.4732 195.555 40.6158 195.555 34.6249V26.54H203.638C209.627 26.54 214.483 21.6827 214.483 15.6918C214.483 9.7009 209.627 4.84356 203.638 4.84356Z" stroke="#FFF" stroke-width="4" stroke-miterlimit="10"/>
<path d="M305.653 4.84356H297.57V-3.24138C297.57 -9.23226 292.714 -14.0896 286.724 -14.0896C280.735 -14.0896 275.879 -9.23226 275.879 -3.24138V4.84356H267.796C261.807 4.84356 256.95 9.7009 256.95 15.6918C256.95 21.6827 261.807 26.54 267.796 26.54H275.879V34.6249C275.879 40.6158 280.735 45.4732 286.724 45.4732C292.714 45.4732 297.57 40.6158 297.57 34.6249V26.54H305.653C311.642 26.54 316.498 21.6827 316.498 15.6918C316.498 9.7009 311.642 4.84356 305.653 4.84356Z" stroke="#FFF" stroke-width="4" stroke-miterlimit="10"/>
<path d="M407.668 4.84356H399.585V-3.24138C399.585 -9.23226 394.729 -14.0896 388.74 -14.0896C382.75 -14.0896 377.894 -9.23226 377.894 -3.24138V4.84356H369.811C363.822 4.84356 358.966 9.7009 358.966 15.6918C358.966 21.6827 363.822 26.54 369.811 26.54H377.894V34.6249C377.894 40.6158 382.75 45.4732 388.74 45.4732C394.729 45.4732 399.585 40.6158 399.585 34.6249V26.54H407.668C413.657 26.54 418.513 21.6827 418.513 15.6918C418.513 9.7009 413.657 4.84356 407.668 4.84356Z" stroke="#FFF" stroke-width="4" stroke-miterlimit="10"/>
<path d="M101.622 110.339H93.5395V102.254C93.5395 96.2636 88.6834 91.4062 82.694 91.4062C76.7046 91.4062 71.8485 96.2636 71.8485 102.254V110.339H63.7656C57.7762 110.339 52.92 115.197 52.92 121.188C52.92 127.178 57.7762 132.036 63.7656 132.036H71.8485V140.121C71.8485 146.112 76.7046 150.969 82.694 150.969C88.6834 150.969 93.5395 146.112 93.5395 140.121V132.036H101.622C107.612 132.036 112.468 127.178 112.468 121.188C112.468 115.197 107.612 110.339 101.622 110.339Z" stroke="#FFF" stroke-width="2" stroke-miterlimit="10"/>
<path d="M203.638 110.339H195.555V102.254C195.555 96.2636 190.699 91.4062 184.709 91.4062C178.72 91.4062 173.864 96.2636 173.864 102.254V110.339H165.781C159.791 110.339 154.935 115.197 154.935 121.188C154.935 127.178 159.791 132.036 165.781 132.036H173.864V140.121C173.864 146.112 178.72 150.969 184.709 150.969C190.699 150.969 195.555 146.112 195.555 140.121V132.036H203.638C209.627 132.036 214.483 127.178 214.483 121.188C214.483 115.197 209.627 110.339 203.638 110.339Z" stroke="#FFF" stroke-width="4" stroke-miterlimit="10"/>
<path d="M305.653 110.339H297.57V102.254C297.57 96.2636 292.714 91.4062 286.724 91.4062C280.735 91.4062 275.879 96.2636 275.879 102.254V110.339H267.796C261.806 110.339 256.95 115.197 256.95 121.188C256.95 127.178 261.806 132.036 267.796 132.036H275.879V140.121C275.879 146.112 280.735 150.969 286.724 150.969C292.714 150.969 297.57 146.112 297.57 140.121V132.036H305.653C311.642 132.036 316.498 127.178 316.498 121.188C316.498 115.197 311.642 110.339 305.653 110.339Z" stroke="#FFF" stroke-width="4" stroke-miterlimit="10"/>
<path d="M407.668 110.339H399.585V102.254C399.585 96.2636 394.729 91.4062 388.74 91.4062C382.75 91.4062 377.894 96.2636 377.894 102.254V110.339H369.811C363.822 110.339 358.966 115.197 358.966 121.188C358.966 127.178 363.822 132.036 369.811 132.036H377.894V140.121C377.894 146.112 382.75 150.969 388.74 150.969C394.729 150.969 399.585 146.112 399.585 140.121V132.036H407.668C413.657 132.036 418.513 127.178 418.513 121.188C418.513 115.197 413.657 110.339 407.668 110.339Z" stroke="#FFF" stroke-width="4" stroke-miterlimit="10"/>
<path d="M50.6172 57.5916H42.5343V49.5067C42.5343 43.5158 37.6781 38.6584 31.6887 38.6584C25.6994 38.6584 20.8432 43.5158 20.8432 49.5067V57.5916H12.7603C6.77093 57.5916 1.91479 62.4489 1.91479 68.4398C1.91479 74.4307 6.77093 79.288 12.7603 79.288H20.8432V87.373C20.8432 93.3639 25.6994 98.2212 31.6887 98.2212C37.6781 98.2212 42.5343 93.3639 42.5343 87.373V79.288H50.6172C56.6066 79.288 61.4627 74.4307 61.4627 68.4398C61.4627 62.4489 56.6066 57.5916 50.6172 57.5916Z" stroke="#FFF" stroke-width="2" stroke-miterlimit="10"/>
<path d="M152.628 57.5916H144.545V49.5067C144.545 43.5158 139.689 38.6584 133.699 38.6584C127.71 38.6584 122.854 43.5158 122.854 49.5067V57.5916H114.771C108.782 57.5916 103.925 62.4489 103.925 68.4398C103.925 74.4307 108.782 79.288 114.771 79.288H122.854V87.373C122.854 93.3639 127.71 98.2212 133.699 98.2212C139.689 98.2212 144.545 93.3639 144.545 87.373V79.288H152.628C158.617 79.288 163.473 74.4307 163.473 68.4398C163.473 62.4489 158.617 57.5916 152.628 57.5916Z" stroke="#FFF" stroke-width="2" stroke-miterlimit="10"/>
<path d="M254.643 57.5916H246.56V49.5067C246.56 43.5158 241.704 38.6584 235.714 38.6584C229.725 38.6584 224.869 43.5158 224.869 49.5067V57.5916H216.786C210.797 57.5916 205.941 62.4489 205.941 68.4398C205.941 74.4307 210.797 79.288 216.786 79.288H224.869V87.373C224.869 93.3639 229.725 98.2212 235.714 98.2212C241.704 98.2212 246.56 93.3639 246.56 87.373V79.288H254.643C260.632 79.288 265.488 74.4307 265.488 68.4398C265.488 62.4489 260.632 57.5916 254.643 57.5916Z" stroke="#FFF" stroke-width="2" stroke-miterlimit="10"/>
<path d="M356.658 57.5916H348.575V49.5067C348.575 43.5158 343.719 38.6584 337.73 38.6584C331.74 38.6584 326.884 43.5158 326.884 49.5067V57.5916H318.801C312.812 57.5916 307.956 62.4489 307.956 68.4398C307.956 74.4307 312.812 79.288 318.801 79.288H326.884V87.373C326.884 93.3639 331.74 98.2212 337.73 98.2212C343.719 98.2212 348.575 93.3639 348.575 87.373V79.288H356.658C362.647 79.288 367.503 74.4307 367.503 68.4398C367.503 62.4489 362.647 57.5916 356.658 57.5916Z" stroke="#FFF" stroke-width="2" stroke-miterlimit="10"/>
<path d="M938.47 4.84356H930.387V-3.24138C930.387 -9.23226 925.531 -14.0896 919.542 -14.0896C913.552 -14.0896 908.696 -9.23226 908.696 -3.24138V4.84356H900.613C894.624 4.84356 889.768 9.7009 889.768 15.6918C889.768 21.6827 894.624 26.54 900.613 26.54H908.696V34.6249C908.696 40.6158 913.552 45.4732 919.542 45.4732C925.531 45.4732 930.387 40.6158 930.387 34.6249V26.54H938.47C944.459 26.54 949.315 21.6827 949.315 15.6918C949.315 9.7009 944.459 4.84356 938.47 4.84356Z" stroke="#FFF" stroke-width="4" stroke-miterlimit="10"/>
<path d="M1040.49 4.84356H1032.4V-3.24138C1032.4 -9.23226 1027.55 -14.0896 1021.56 -14.0896C1015.57 -14.0896 1010.71 -9.23226 1010.71 -3.24138V4.84356H1002.63C996.639 4.84356 991.783 9.7009 991.783 15.6918C991.783 21.6827 996.639 26.54 1002.63 26.54H1010.71V34.6249C1010.71 40.6158 1015.57 45.4732 1021.56 45.4732C1027.55 45.4732 1032.4 40.6158 1032.4 34.6249V26.54H1040.49C1046.47 26.54 1051.33 21.6827 1051.33 15.6918C1051.33 9.7009 1046.47 4.84356 1040.49 4.84356Z" stroke="#FFF" stroke-width="4" stroke-miterlimit="10"/>
</svg>
